<svg width="64" height="80" viewBox="0 0 64 80" fill="none" xmlns="http://www.w3.org/2000/svg">
<path d="M57.3333 77.3334V30.6667H46.6667V41.3334H30.6667V22.6667H20V30.6667H6.66667V77.3334H0V80.0001H64V77.3334H57.3333ZM45.3333 45.3334H50.6667V50.6667H45.3333V45.3334ZM45.3333 56.0001H50.6667V61.3334H45.3333V56.0001ZM34.6667 45.3334H40V50.6667H34.6667V45.3334ZM34.6667 56.0001H40V61.3334H34.6667V56.0001ZM24 45.3334H29.3333V50.6667H24V45.3334ZM24 56.0001H29.3333V61.3334H24V56.0001ZM13.3333 34.6667H18.6667V40.0001H13.3333V34.6667ZM13.3333 45.3334H18.6667V50.6667H13.3333V45.3334ZM13.3333 56.0001H18.6667V61.3334H13.3333V56.0001ZM38.6667 77.3334V68.0001H33.3333V77.3334H30.6667V68.0001H25.3333V77.3334H22.6667V65.3334H41.3333V77.3334H38.6667Z" fill="black"/>
<path d="M9.33317 28H11.9998V16H23.9998V20H26.6665V16H38.6665V22.6667H33.3332V25.3333H38.6665V38.6667H41.3332V25.3333H51.9998V28H54.6665V25.3333H57.3332V22.6667H54.6665V16H57.3332V13.3333H54.6665V8H51.9998V13.3333H41.3332V8H38.6665V13.3333H26.6665V5.33333H29.3332V2.66667H26.6665V0H23.9998V2.66667H11.9998V0H9.33317V2.66667H6.6665V5.33333H9.33317V13.3333H6.6665V16H9.33317V28ZM51.9998 16V22.6667H41.3332V16H51.9998ZM11.9998 5.33333H23.9998V13.3333H11.9998V5.33333Z" fill="black"/>
</svg>
