<svg width="81" height="25" viewBox="0 0 81 25" fill="none" xmlns="http://www.w3.org/2000/svg">
<path fill-rule="evenodd" clip-rule="evenodd" d="M34.7259 20.3304C34.7259 20.0239 34.7583 19.7247 34.8204 19.4361H33.7194V14.7506H35.2501C34.2885 13.7765 33.6382 11.9236 33.6382 9.7991V6.55477C33.6382 3.41872 35.0543 0.874068 36.7993 0.874068V1.64916H36.6186C36.1141 1.64916 35.7049 2.0584 35.7049 2.56289V2.72447C35.7049 3.22862 36.1141 3.63784 36.6186 3.63784H36.7993V11.7589H37.5564L37.5803 3.63784H45.4915V11.7589H46.2818V3.63784H54.1844V11.7589H54.9747V3.63784H62.877V11.7589H63.6676V3.63784H64.0832C64.5877 3.63784 64.997 3.2286 64.997 2.72447V2.56289C64.997 2.05839 64.5877 1.64916 64.0832 1.64916H63.6676V0.880064H63.8119C65.4902 1.01554 66.8294 3.50591 66.8294 6.5548V9.79914C66.8294 11.9244 66.1785 13.7784 65.2161 14.7517H66.66V16.4279H63.9908V17.3586H69.535V16.224H80.7884L80.3566 19.3029H80.8V22.2015L77.8407 22.5967V21.6759H76.9852C76.4218 23.3615 74.8293 24.5773 72.9552 24.5773C71.0413 24.5773 69.4216 23.3101 68.8906 21.5689H64.7703C64.2393 23.31 62.6197 24.5773 60.7061 24.5773C58.3617 24.5773 56.458 22.6747 56.458 20.3306C56.458 18.798 57.2716 17.4546 58.4902 16.7078V16.428H55.2395V21.5693H53.4258V19.4363H51.4247C51.4868 19.7249 51.5196 20.0241 51.5196 20.3307C51.5196 22.6747 49.6163 24.5773 47.2716 24.5773C45.2413 24.5773 43.5415 23.151 43.1227 21.2466C42.7035 23.151 41.0038 24.5773 38.9737 24.5773C36.6294 24.5773 34.7257 22.6747 34.7257 20.3307L34.7259 20.3304ZM40.9432 20.3301C40.9432 19.2428 40.0609 18.3597 38.9735 18.3597C37.8859 18.3597 37.0036 19.2428 37.0036 20.3301C37.0036 21.4174 37.8859 22.3004 38.9735 22.3004C40.0608 22.3004 40.9432 21.4174 40.9432 20.3301ZM49.241 20.3301C49.241 19.2428 48.3587 18.3597 47.2713 18.3597C46.1837 18.3597 45.3014 19.2428 45.3014 20.3301C45.3014 21.4174 46.1837 22.3004 47.2713 22.3004C48.3587 22.3004 49.241 21.4174 49.241 20.3301ZM62.6756 20.3301C62.6756 19.2428 61.7932 18.3597 60.7059 18.3597C59.6182 18.3597 58.7359 19.2428 58.7359 20.3301C58.7359 21.4174 59.6182 22.3004 60.7059 22.3004C61.7932 22.3004 62.6756 21.4174 62.6756 20.3301ZM74.9243 20.3301C74.9243 19.2428 74.0419 18.3597 72.9546 18.3597C71.8669 18.3597 70.9846 19.2428 70.9846 20.3301C70.9846 21.4174 71.8669 22.3004 72.9546 22.3004C74.0419 22.3004 74.9243 21.4174 74.9243 20.3301ZM68.4642 15.3535V1.8133H69.5353V0.730952H77.2457L79.2174 2.59191L79.5762 4.57959H78.5824L78.9775 10.0342H80.5609L80.7997 11.3555V15.3538L68.4642 15.3535ZM78.2355 9.79905L77.8404 4.57941H73.7578V9.40391L76.5001 9.64593L76.5004 7.60994H77.5842L77.5839 9.74158L78.2355 9.79905ZM37.586 1.64911L37.5885 0.874717L40.3544 0.875775L40.3551 0.0837485H42.7259L42.7252 0.875775L45.4911 0.876128V1.64911L37.586 1.64911ZM46.2814 1.64911V0.876127L49.0473 0.877185L49.048 0.0837402H51.4188L51.4181 0.877889L54.184 0.878242V1.64911L46.2814 1.64911ZM54.9743 1.64911V0.878239L57.7399 0.879298L57.7409 0.0837402H60.1117L60.111 0.879298L62.8766 0.880003V1.6491L54.9743 1.64911Z" fill="black"/>
<path d="M29.3253 9.79663C30.305 9.71818 31.0102 8.93453 31.0102 7.95487C31.0102 6.9752 29.1684 6.07398 29.1684 6.07398H27.2091L26.2294 2.78238C25.7984 1.29323 24.231 0.078443 22.6243 0H8.63465C7.06733 0.07845 5.49966 1.25411 5.02949 2.78238L4.04982 6.07398H2.09049C2.09049 6.07398 0.248721 6.93609 0.248721 7.95487C0.248721 8.93453 1.03238 9.71819 1.9336 9.79663C0.757937 10.3452 -0.0648415 11.5209 0.0133917 12.9316V19.1622C-0.104147 19.9853 0.56199 20.5729 1.62011 20.612V23.6686C1.30658 24.2563 2.44317 24.6091 2.44317 24.6091H4.52006C5.14711 24.6091 5.65633 24.139 5.65633 23.5119V20.5729H25.4064V23.5119C25.4064 24.0996 25.8765 24.6091 26.5426 24.6091H28.8546C28.8546 24.6091 29.9909 24.2956 29.8342 23.6686V20.612C30.7355 20.573 31.4016 19.985 31.441 19.1622L31.4412 12.9313C31.3237 11.56 30.5009 10.3452 29.3253 9.79663ZM6.16604 3.17404C6.47957 2.11593 7.69431 1.21471 8.79154 1.21471H22.3893C23.4865 1.21471 24.7012 2.11593 25.0148 3.17404L26.3865 8.07236H4.79465L6.16604 3.17404ZM4.75532 15.988C3.73654 15.988 2.91355 15.165 2.91355 14.1463C2.91355 13.1276 3.73661 12.3045 4.75532 12.3045C5.77403 12.3045 6.59709 13.1276 6.59709 14.1463C6.59709 15.2044 5.77431 15.988 4.75532 15.988ZM20.5475 18.1434H10.8684V15.7139H20.5475V18.1434ZM26.504 15.988C25.4458 15.988 24.6622 15.2044 24.6622 14.1463C24.6622 13.1275 25.4852 12.3045 26.504 12.3045C27.5227 12.3045 28.3457 13.1276 28.3457 14.1463C28.3457 15.1653 27.5621 15.988 26.504 15.988Z" fill="black"/>
</svg>
